<svg version="1.1" width="487" height="398" xmlns:xlink="http://www.w3.org/1999/xlink" xmlns="http://www.w3.org/2000/svg">
  <defs/>
  <g transform="matrix(1, 0, 0, 1, 125, 10)">
    <path stroke="none" fill="#bbbdbf" fill-opacity="1" d="M 137.55 0.2 Q 137.7 13.55 137.95 26.6 Q 138.15 46.35 138.45 65.4 Q 139.05 103.95 139.9 139.75 Q 140.3 159.45 140.8 178.35 Q 141.25 194 141.7 209 Q 129.5 209.75 90.2 211.25 Q 59.75 212.25 36.6 212.55 L 36.35 212.55 Q 17.35 212.9 3.35 212.75 Q 3.35 203.8 1.75 170 Q 0.2 136.2 0.2 104.25 L 0.2 67.1 Q 0.2 50.75 1.25 27.7 Q 2.3 4.65 3.3 1.7 Q 27.85 1.7 56.1 1.5 Q 93.55 1.05 137.55 0.2 L 137.55 0.2 "/>
    <path stroke="#000000" stroke-opacity="1" stroke-width="1" fill="none" d="M 61.05 70.45 Q 67.05 70.8 73.3 70.8 Q 82.15 67.45 93.85 66.7 Q 102.45 66.35 115.7 66.7 Q 120.8 65.75 126.1 64.5 M 97.75 181.7 Q 103 181.45 108.15 181.5 Q 118.8 181.9 127 179.1 Q 119.45 180 97.75 180.6 L 97.35 180.6 Q 94.9 180.7 92.3 180.8 Q 68.6 181.15 62.9 183.75 M 126.1 139.55 Q 120.9 140.8 115.7 141.75 Q 92.8 146.2 73.05 145.85 Q 65.75 148.8 60.05 153.65 M 137.55 0.2 Q 93.55 1.05 56.15 1.5 Q 27.85 1.7 3.3 1.7 Q 2.3 4.65 1.25 27.7 Q 0.2 50.75 0.2 67.1 L 0.2 104.25 Q 0.2 136.2 1.75 170 Q 3.35 203.8 3.35 212.75 Q 17.35 212.9 36.35 212.55 L 36.6 212.55 Q 59.75 212.25 90.2 211.25 Q 129.5 209.75 141.7 209 Q 141.25 193.95 140.8 178.35 Q 140.3 159.45 139.9 139.7 Q 139.05 103.95 138.45 65.4 Q 138.15 46.35 137.95 26.6 Q 137.7 13.55 137.55 0.2 L 137.55 0.2 M 60.8 35.15 Q 77.95 30.4 94.25 29.55 Q 99.7 29.4 105.05 29.55 Q 115.7 29.55 123.9 26.8 Q 116.1 27.7 94.65 28.25 L 94.25 28.25 Q 91.8 28.4 89.15 28.45 Q 65.5 28.8 59.75 31.4 M 54.2 23.6 L 53.9 24 Q 53.6 24.6 53.15 25.3 Q 50.7 29.1 45.75 35.5 Q 44.05 37.8 42.6 39.8 L 42.45 39.95 Q 40.15 42.95 38.45 45.15 L 38.45 45.55 L 38.2 45.55 Q 35.6 48.9 34.3 50.35 Q 34 50.35 31.7 45.55 L 20.5 45.55 L 20.5 21 L 25.7 21 Q 31.15 21.75 37.15 21.75 Q 37.15 23.25 37.9 32.9 Q 38.45 37.75 38.45 42.2 Q 39.75 40.5 41.45 38.3 L 41.55 38.1 Q 43.5 35.55 46 32.15 Q 54.3 21.4 55.35 21.4 Q 55 22.25 54.2 23.6 L 54.2 23.6 M 56.15 60.8 Q 57.35 59.15 57.15 60.8 Q 57 61.2 56.65 61.7 L 56.4 62.25 L 56 63 Q 54.85 64.75 52.9 67.45 Q 50.7 70.4 47.55 74.5 Q 38.95 86.05 36.1 89.4 Q 35.95 89.4 34.55 86.8 Q 33.8 85.25 32.7 83.05 Q 28.8 83.05 25.7 83.8 L 21 83.8 Q 21 69.3 20.5 60.05 L 38.45 60.05 Q 38.45 67.45 38.95 71.2 L 38.95 82.7 Q 36.6 82.7 34.55 83.05 Q 36.1 86.05 36.35 86.4 Q 37.35 85.15 38.95 82.9 Q 42.2 78.75 47.8 71.2 Q 53.05 64.35 55.75 61.15 L 56.15 60.8 L 56.15 60.8 M 34.55 83.05 Q 34 82.7 33.5 83.05 Q 34.1 84.25 34.55 85.1 Q 35.9 87.9 36.1 87.9 L 36.6 87.35 Q 37.65 86.1 39.2 84 Q 42.35 80.05 47.55 73.05 Q 53.45 65.25 56.15 61.9 L 56.5 61.5 Q 56.9 61.1 57.15 60.8 M 115.7 66.7 Q 93.05 71.2 73.3 70.8 Q 65.75 73.4 60.3 78.25 M 31.7 45.55 Q 31.4 44.8 30.9 44.05 Q 27.75 37.35 27.5 35.5 L 27.25 35.15 Q 29.05 36.25 31.15 40.7 Q 32.7 44.05 33.75 45.55 L 35.85 45.55 Q 36.9 44.05 38.45 42.2 L 38.45 43.7 Q 39.95 41.7 41.95 39.05 L 42.1 38.85 Q 43.7 36.75 45.75 34 Q 53 24.75 55.35 21.4 M 31.7 45.55 L 32.7 45.55 Q 31.95 44.05 30.9 42.2 Q 28.55 37.35 27.5 35.5 M 38.45 43.7 Q 37.65 44.8 36.9 45.55 L 38.2 45.55 Q 38.45 45.55 38.45 45.15 L 38.45 43.7 L 38.45 43.7 M 35.85 45.55 Q 35.05 46.3 34.55 47.05 L 33.75 45.55 L 32.7 45.55 Q 34.3 48.9 34.55 48.9 Q 35.3 47.75 36.9 45.55 L 35.85 45.55 L 35.85 45.55 M 32.7 83.05 Q 29.35 76.4 29.05 74.5 Q 30.9 75.25 32.7 79.7 Q 33.75 81.6 34.55 83.05 M 32.7 83.05 Q 33 83.05 33.5 83.05 Q 33.25 82.3 32.7 81.2 Q 30.1 76 29.05 74.5 M 35.05 120.6 L 36.35 120.6 L 36.35 99.8 Q 35.65 99.3 34.55 99.05 Q 32.3 98.3 28.3 98.3 Q 22.7 98.65 20.9 98.65 L 20.5 98.65 Q 20.5 110.2 19.45 115.4 L 19.45 120.6 L 33.25 120.6 Q 32.7 119.85 31.95 118.35 Q 28.8 112.05 28.55 110.2 L 28.3 109.8 Q 30.1 110.95 32.2 115 Q 34 119.1 35.05 120.6 L 35.05 120.6 L 34 120.6 Q 35.3 123.2 35.6 123.2 Q 38.45 119.85 46.75 108.7 Q 52.15 101.55 54.85 98.1 Q 55.8 96.85 56.4 96.05 Q 56 96.9 55.1 98.5 Q 54.85 98.8 54.55 99.25 Q 54.05 100.05 53.4 101.1 Q 50.95 104.6 46.75 110.2 Q 38.45 121.7 35.3 125.05 Q 35.05 124.65 33.25 120.6 L 34 120.6 Q 33.25 119.1 31.95 116.9 Q 29.6 112.05 28.55 110.2 M 56.4 94.95 Q 55.6 95.9 54.45 97.35 Q 51.8 100.7 47.05 106.85 Q 38.45 118.35 35.6 121.7 L 35.05 120.6 M 35.05 133.25 Q 29.65 133.15 24.65 132.5 L 19.45 132.5 L 19.45 157 L 37.4 157 Q 37.4 151.05 36.9 144 Q 36.1 134.7 36.1 133.25 L 35.3 133.25 L 35.05 133.25 L 35.05 133.25 M 57.95 171.1 Q 57.5 172.05 56.5 173.55 L 56 174.45 L 55.85 174.65 Q 55.45 175.3 54.95 176.15 L 54.85 176.3 Q 52.4 179.8 48.35 185.25 Q 39.75 196.75 36.6 200.1 L 33.75 194.5 Q 28.8 194.5 24.65 195.25 L 19.95 195.25 Q 19.95 180.8 19.45 171.1 L 37.4 171.1 Q 37.4 178.9 37.9 182.65 L 37.9 194.15 Q 36.6 194.15 35.6 194.5 Q 36.9 196.75 37.15 196.75 Q 40 193.4 48.6 181.9 Q 53.3 175.8 55.85 172.4 Q 56.9 171 57.55 170.2 M 94.65 103.3 Q 92 103.45 89.15 103.5 Q 65.25 103.85 59.75 106.45 M 60.55 110.2 Q 77.9 105.45 94.25 104.6 L 94.65 104.6 Q 99.9 104.45 105.05 104.6 Q 115.7 104.6 124 105.75 M 35.6 194.55 Q 35.05 194.15 34.55 194.55 Q 36.6 198.25 36.9 198.25 Q 37.1 198 37.4 197.7 Q 40.45 194.3 48.3 183.75 Q 53.55 176.85 56.4 173.15 Q 57.3 172 57.95 171.1 M 73.05 145.85 Q 67.05 145.85 60.8 145.5 M 63.65 187.45 Q 81 182.75 97.35 181.7 L 97.75 181.7 M 73.05 145.85 Q 82.15 142.5 93.6 141.75 Q 102.15 141.4 115.7 141.75 M 35.6 194.55 Q 34.8 192.65 33.5 190.45 Q 31.65 186 29.85 184.85 L 30.1 185.25 Q 30.9 186.7 33.25 191.9 Q 34 193.05 34.55 194.5 M 30.1 185.25 Q 30.1 187.1 33.25 193.4 Q 33.5 193.8 33.75 194.55 Q 34 194.15 34.55 194.55 M 141.7 209 Q 145.85 208.65 146.9 208.25 M 125.6 101.65 Q 119 102.65 94.65 103.3 "/>
  </g>
  <g transform="matrix(1, 0, 0, 1, 266, 54)">
    <path stroke="none" fill="#ffffff" fill-opacity="1" d="M 48.45 128.85 Q 48.45 143.25 48.75 155.45 Q 49.05 168.3 49.05 177.05 Q 49.05 180.5 48.65 229.4 Q 48.45 232.5 48.45 241 Q 48.45 250.05 48.75 261.65 Q 49.05 272.65 49.05 286.1 Q 49.05 309.3 47.95 311.15 Q 45.2 312.1 41.95 315.25 Q 39.7 317.1 35.35 316.5 Q 31.4 315.25 31.1 315.25 Q 28.35 315.25 20.5 312.1 Q 14.35 309.3 9.85 311.15 Q 6.9 312.75 1.25 309.3 Q 0.5 274.5 0.5 226.9 Q 1.15 154.8 1.15 124.45 Q 0.85 101.9 1.15 89.65 Q 1.25 86.55 1.35 84.35 L 1.35 79.35 Q 1.35 74.95 1.35 70.25 Q 1.35 29.5 1.55 3.2 Q 6.1 4.45 14.85 6.95 Q 20.3 9.15 24.4 9.15 L 26.4 9.15 Q 30.7 8.5 31.5 6.3 Q 32.5 4.45 33.65 4.45 Q 34.75 4.45 49.05 14.15 L 49.45 32.95 Q 49.45 48.95 48.95 81.2 Q 48.45 113.45 48.45 128.85 L 48.45 128.85 "/>
    <path stroke="#000000" stroke-opacity="1" stroke-width="4" fill="none" d="M 48.75 155.45 Q 49.05 168.3 49.05 177.05 Q 49.05 180.5 48.65 229.4 Q 48.45 232.5 48.45 241 Q 48.45 250.05 48.75 261.65 Q 49.05 272.65 49.05 286.1 Q 49.05 309.3 47.95 311.15 Q 45.2 312.1 41.95 315.25 Q 39.7 317.1 35.35 316.5 Q 31.4 315.25 31.1 315.25 Q 28.35 315.25 20.5 312.1 Q 14.35 309.3 9.85 311.15 Q 6.9 312.75 1.25 309.3 Q 0.5 274.5 0.5 226.9 Q 1.15 154.8 1.15 124.45 Q 0.85 101.9 1.15 89.65 Q 1.25 86.55 1.35 84.35 L 1.35 79.35 Q 1.35 74.95 1.35 70.25 Q 1.35 29.5 1.55 3.2 Q 6.1 4.45 14.85 6.95 Q 20.3 9.15 24.4 9.15 L 26.4 9.15 Q 30.7 8.5 31.5 6.3 Q 32.5 4.45 33.65 4.45 Q 34.75 4.45 49.05 14.15 L 49.45 32.95 Q 49.45 48.95 48.95 81.2 Q 48.45 113.45 48.45 128.85 Q 48.45 143.25 48.75 155.45 M 48.45 128.85 L 48.45 128.85 "/>
  </g>
  <g transform="matrix(1, 0, 0, 1, 218, 43)">
    <path stroke="none" fill="#ffffff" fill-opacity="1" d="M 50.4 133.65 Q 50.4 148.6 50.7 161.3 Q 51 174.6 51 183.7 Q 51 187.3 50.6 238 Q 50.4 241.25 50.4 250 Q 50.4 259.45 50.7 271.45 Q 51 282.85 51 296.8 Q 51 320.9 49.85 322.8 Q 47 323.8 43.65 327.05 Q 41.3 329 36.75 328.35 Q 32.65 327.05 32.35 327.05 Q 29.5 327.05 21.35 323.8 Q 14.95 320.85 10.25 322.85 Q 7.2 324.45 1.3 320.9 Q 0.5 284.8 0.5 235.4 Q 1.2 160.65 1.2 129.1 Q 0.9 105.7 1.2 93.05 Q 1.3 89.8 1.4 87.5 L 1.4 82.3 Q 1.4 77.75 1.4 72.85 Q 1.4 30.6 1.6 3.3 Q 6.3 4.6 15.45 7.2 Q 21.15 9.5 25.35 9.5 L 27.45 9.5 Q 31.95 8.85 32.75 6.55 Q 33.8 4.6 35 4.6 Q 36.15 4.6 51 14.7 L 51.45 34.2 Q 51.45 50.8 50.9 84.25 Q 50.4 117.75 50.4 133.65 L 50.4 133.65 "/>
    <path stroke="#000000" stroke-opacity="1" stroke-width="4" fill="none" d="M 50.7 161.3 Q 51 174.6 51 183.7 Q 51 187.3 50.6 238 Q 50.4 241.25 50.4 250 Q 50.4 259.45 50.7 271.45 Q 51 282.85 51 296.8 Q 51 320.9 49.85 322.8 Q 47 323.8 43.65 327.05 Q 41.3 329 36.75 328.35 Q 32.65 327.05 32.35 327.05 Q 29.5 327.05 21.35 323.8 Q 14.95 320.85 10.25 322.85 Q 7.2 324.45 1.3 320.9 Q 0.5 284.8 0.5 235.4 Q 1.2 160.65 1.2 129.1 Q 0.9 105.7 1.2 93.05 Q 1.3 89.8 1.4 87.5 L 1.4 82.3 Q 1.4 77.75 1.4 72.85 Q 1.4 30.6 1.6 3.3 Q 6.3 4.6 15.45 7.2 Q 21.15 9.5 25.35 9.5 L 27.45 9.5 Q 31.95 8.85 32.75 6.55 Q 33.8 4.6 35 4.6 Q 36.15 4.6 51 14.7 L 51.45 34.2 Q 51.45 50.8 50.9 84.25 Q 50.4 117.75 50.4 133.65 Q 50.4 148.6 50.7 161.3 M 50.4 133.65 L 50.4 133.65 "/>
  </g>
  <g transform="matrix(1, 0, 0, 1, 309, 55)">
    <path stroke="none" fill="#ffffff" fill-opacity="1" d="M 112.45 133.25 Q 112.45 148.15 113.15 160.8 Q 113.8 174.1 113.8 183.15 Q 113.8 186.7 112.9 237.3 Q 112.45 240.5 112.45 249.25 Q 112.45 258.65 113.15 270.65 Q 113.8 282 113.8 295.95 Q 113.8 319.9 111.2 321.85 Q 104.85 322.8 97.35 326.05 Q 92.1 328 82 327.35 Q 72.8 326.05 72.15 326.05 Q 65.8 326.05 47.6 322.8 Q 33.3 319.9 22.85 321.85 Q 16.05 323.5 2.85 319.9 Q 1.15 283.95 1.15 234.7 Q 2.65 160.15 2.65 128.7 Q 1.95 105.4 2.65 92.75 Q 2.85 89.5 3.1 87.25 L 3.1 82.05 Q 3.1 77.5 3.1 72.65 Q 3.1 30.55 3.55 3.3 Q 14.1 4.6 34.45 7.2 Q 47.15 9.45 56.6 9.45 L 61.25 9.45 Q 71.25 8.8 73.05 6.55 Q 75.45 4.6 78.05 4.6 Q 80.65 4.6 113.8 14.65 L 114.7 34.1 Q 114.7 50.65 113.6 84 Q 112.45 117.35 112.45 133.25 L 112.45 133.25 "/>
    <path stroke="#000000" stroke-opacity="1" stroke-width="4" fill="none" d="M 113.15 160.8 Q 113.8 174.1 113.8 183.15 Q 113.8 186.7 112.9 237.3 Q 112.45 240.5 112.45 249.25 Q 112.45 258.65 113.15 270.65 Q 113.8 282 113.8 295.95 Q 113.8 319.9 111.2 321.85 Q 104.85 322.8 97.35 326.05 Q 92.1 328 82 327.35 Q 72.8 326.05 72.15 326.05 Q 65.8 326.05 47.6 322.8 Q 33.3 319.9 22.85 321.85 Q 16.05 323.5 2.85 319.9 Q 1.15 283.95 1.15 234.7 Q 2.65 160.15 2.65 128.7 Q 1.95 105.4 2.65 92.75 Q 2.85 89.5 3.1 87.25 L 3.1 82.05 Q 3.1 77.5 3.1 72.65 Q 3.1 30.55 3.55 3.3 Q 14.1 4.6 34.45 7.2 Q 47.15 9.45 56.6 9.45 L 61.25 9.45 Q 71.25 8.8 73.05 6.55 Q 75.45 4.6 78.05 4.6 Q 80.65 4.6 113.8 14.65 L 114.7 34.1 Q 114.7 50.65 113.6 84 Q 112.45 117.35 112.45 133.25 Q 112.45 148.15 113.15 160.8 M 112.45 133.25 L 112.45 133.25 "/>
  </g>
  <g transform="matrix(1, 0, 0, 1, 416, 48)">
    <path stroke="none" fill="#ffffff" fill-opacity="1" d="M 59.15 136.9 Q 59.15 152.2 59.5 165.15 Q 59.85 178.8 59.85 188.15 Q 59.85 191.8 59.35 243.75 Q 59.15 247.05 59.15 256.05 Q 59.15 265.7 59.5 278 Q 59.85 289.65 59.85 303.95 Q 59.85 328.6 58.5 330.6 Q 55.15 331.6 51.2 334.95 Q 48.45 336.95 43.15 336.25 Q 38.3 334.95 37.95 334.95 Q 34.6 334.95 25.05 331.6 Q 17.5 328.6 12 330.6 Q 8.45 332.3 1.5 328.6 Q 0.6 291.65 0.6 241.05 Q 1.4 164.5 1.4 132.2 Q 1.05 108.25 1.4 95.25 Q 1.5 91.95 1.65 89.6 L 1.65 84.3 Q 1.65 79.6 1.65 74.65 Q 1.6 31.35 1.85 3.4 Q 7.4 4.7 18.1 7.4 Q 24.8 9.7 29.75 9.7 L 32.2 9.7 Q 37.45 9.05 38.4 6.7 Q 39.65 4.7 41.05 4.75 Q 42.4 4.75 59.85 15.05 L 60.35 35 Q 60.35 52 59.75 86.3 Q 59.15 120.55 59.15 136.9 L 59.15 136.9 "/>
    <path stroke="#000000" stroke-opacity="1" stroke-width="4" fill="none" d="M 59.5 165.15 Q 59.85 178.8 59.85 188.15 Q 59.85 191.8 59.35 243.75 Q 59.15 247.05 59.15 256.05 Q 59.15 265.7 59.5 278 Q 59.85 289.65 59.85 303.95 Q 59.85 328.6 58.5 330.6 Q 55.15 331.6 51.2 334.95 Q 48.45 336.95 43.15 336.25 Q 38.3 334.95 37.95 334.95 Q 34.6 334.95 25.05 331.6 Q 17.5 328.6 12 330.6 Q 8.45 332.3 1.5 328.6 Q 0.6 291.65 0.6 241.05 Q 1.4 164.5 1.4 132.2 Q 1.05 108.25 1.4 95.25 Q 1.5 91.95 1.65 89.6 L 1.65 84.3 Q 1.65 79.6 1.65 74.65 Q 1.6 31.35 1.85 3.4 Q 7.4 4.7 18.1 7.4 Q 24.8 9.7 29.75 9.7 L 32.2 9.7 Q 37.45 9.05 38.4 6.7 Q 39.65 4.7 41.05 4.75 Q 42.4 4.75 59.85 15.05 L 60.35 35 Q 60.35 52 59.75 86.3 Q 59.15 120.55 59.15 136.9 Q 59.15 152.2 59.5 165.15 M 59.15 136.9 L 59.15 136.9 "/>
  </g>
  <g transform="matrix(1, 0, 0, 1, 0, 0)">
    <path stroke="#000000" stroke-opacity="0.00784313725490196" stroke-width="10" fill="none" d="M 221 115 Q 244.2 118.6 267.5 118.5 Q 369.7 118.1 472 114 "/>
    <path stroke="#000000" stroke-opacity="1" stroke-width="3" fill="none" d="M 221 115 Q 244.2 118.6 267.5 118.5 Q 369.7 118.1 472 114 "/>
  </g>
  <g transform="matrix(1, 0, 0, 1, 0, 0)">
    <path stroke="#000000" stroke-opacity="0.00784313725490196" stroke-width="10" fill="none" d="M 224 150 L 471 159.5 "/>
    <path stroke="#000000" stroke-opacity="1" stroke-width="2" fill="none" d="M 224 150 L 471 159.5 "/>
  </g>
  <g transform="matrix(1, 0, 0, 1, 0, 0)">
    <path stroke="#000000" stroke-opacity="0.00784313725490196" stroke-width="10" fill="none" d="M 220 183 Q 258.35 191.4 297 193 Q 313.75 193.7 324.1 193.5 Q 334.5 193.3 342.75 192.6 Q 351 191.95 361.4 191.2 Q 371.8 190.45 388.6 190 Q 426.55 189.1 464.5 189 "/>
    <path stroke="#000000" stroke-opacity="1" stroke-width="4" fill="none" d="M 220 183 Q 258.35 191.4 297 193 Q 313.75 193.7 324.1 193.5 Q 334.5 193.3 342.75 192.6 Q 351 191.95 361.4 191.2 Q 371.8 190.45 388.6 190 Q 426.55 189.1 464.5 189 "/>
  </g>
  <g transform="matrix(1, 0, 0, 1, 0, 0)">
    <path stroke="#000000" stroke-opacity="0.00784313725490196" stroke-width="10" fill="none" d="M 220 249 Q 258.35 257.4 297 259 Q 313.75 259.7 324.1 259.5 Q 334.5 259.3 342.75 258.6 Q 351 257.95 361.4 257.2 Q 371.8 256.45 388.6 256 Q 426.55 255.1 464.5 255 "/>
    <path stroke="#000000" stroke-opacity="1" stroke-width="2" fill="none" d="M 220 249 Q 258.35 257.4 297 259 Q 313.75 259.7 324.1 259.5 Q 334.5 259.3 342.75 258.6 Q 351 257.95 361.4 257.2 Q 371.8 256.45 388.6 256 Q 426.55 255.1 464.5 255 "/>
  </g>
  <g transform="matrix(1, 0, 0, 1, 0, 0)">
    <path stroke="#000000" stroke-opacity="0.00784313725490196" stroke-width="10" fill="none" d="M 230 315 Q 258.1 314.1 285.4 317.65 Q 289.5 318.25 291.9 319.35 Q 294.35 320.45 296.2 321.7 Q 298 322.95 300.45 323.85 Q 302.85 324.8 307 325 Q 323.65 325.6 334 325.4 Q 344.35 325.2 352.6 324.55 Q 360.9 323.9 371.35 323.2 Q 381.75 322.45 398.6 322 Q 436.55 321.1 474.5 321 "/>
    <path stroke="#000000" stroke-opacity="1" stroke-width="4" fill="none" d="M 230 315 Q 258.1 314.1 285.4 317.65 Q 289.5 318.25 291.9 319.35 Q 294.35 320.45 296.2 321.7 Q 298 322.95 300.45 323.85 Q 302.85 324.8 307 325 Q 323.65 325.6 334 325.4 Q 344.35 325.2 352.6 324.55 Q 360.9 323.9 371.35 323.2 Q 381.75 322.45 398.6 322 Q 436.55 321.1 474.5 321 "/>
  </g>
  <g transform="matrix(1, 0, 0, 1, 0, 0)"/>
</svg>